<svg xmlns="http://www.w3.org/2000/svg" width="90" height="90" viewBox="0 0 90 90"><path d="M0 54.023c0 3.043 1.385 5.764 3.568 7.598V46.43C1.385 48.26 0 50.982 0 54.023m7.342-9.59v19.182c.89.246 1.832.385 2.8.385h.975V44.094c-.325-.027-.65-.045-.98-.045-.972 0-1.907.134-2.795.382m8.336 1.245c-.258-.165-.515-.317-.79-.457V64h3.774V38.88c-1.502 1.96-2.55 4.275-2.984 6.797m6.76-10.328V64h3.773V33.49c-1.348.455-2.614 1.087-3.773 1.86m7.547-2.64V64h3.774V32.825c-.773-.115-1.57-.175-2.38-.175-.472 0-.937.023-1.394.06m9.628 2.206c-1.232-.73-2.558-1.306-3.966-1.69V64h5.66V32.646c-.618.713-1.186 1.474-1.694 2.27m3.583-4.162V64h35.852v-.044C86.597 63.473 90 58.79 90 53.076c0-6.036-4.562-10.926-10.703-10.926-1.576 0-2.874.325-4.245.913C74.07 33.48 65.942 26 55.932 26c-4.896 0-9.346 1.793-12.737 4.754"/></svg>